<svg width="126" height="40" fill="none" xmlns="http://www.w3.org/2000/svg"><g clip-path="url(#clip0_2508_1308)"><path d="M66.854 10.455c0 1.386-1.148 2.519-2.55 2.519-1.404 0-2.552-1.133-2.552-2.519 0-1.385 1.084-2.519 2.551-2.519 1.467.032 2.551 1.165 2.551 2.52zm-10.459 5.038v.63S55.183 14.58 52.6 14.58c-4.24 0-7.589 3.211-7.589 7.62 0 4.407 3.285 7.618 7.59 7.618 2.614 0 3.794-1.574 3.794-1.574v.661c0 .315.223.536.542.536h3.157V14.958h-3.157a.554.554 0 00-.542.535zm0 9.288c-.574.85-1.754 1.574-3.157 1.574-2.487 0-4.4-1.543-4.4-4.156 0-2.613 1.913-4.156 4.4-4.156 1.371 0 2.615.756 3.157 1.574v5.164zm6.059-9.823h3.762V29.44h-3.762V14.958zm55.963-.378c-2.583 0-3.795 1.542-3.795 1.542V8h-3.763v21.473h3.157a.554.554 0 00.542-.535v-.661s1.212 1.574 3.795 1.574c4.241 0 7.589-3.243 7.589-7.62.032-4.407-3.316-7.65-7.525-7.65zm-.606 11.744c-1.435 0-2.583-.725-3.157-1.575v-5.163c.574-.756 1.849-1.574 3.157-1.574 2.487 0 4.4 1.542 4.4 4.156 0 2.613-1.913 4.156-4.4 4.156zm-8.865-5.479v8.627h-3.763v-8.186c0-2.393-.765-3.369-2.901-3.369-1.148 0-2.296.567-3.03 1.417V29.44H95.49V14.958h2.965c.319 0 .542.283.542.535v.63c1.084-1.134 2.551-1.543 3.986-1.543 1.626 0 2.998.472 4.114 1.385 1.339 1.07 1.849 2.456 1.849 4.88zM86.402 14.58c-2.584 0-3.795 1.542-3.795 1.542V8h-3.763v21.473h3.157a.554.554 0 00.542-.535v-.661s1.212 1.574 3.795 1.574c4.24 0 7.589-3.243 7.589-7.62.064-4.407-3.253-7.65-7.526-7.65zm-.606 11.744c-1.435 0-2.583-.725-3.157-1.575v-5.163c.574-.756 1.85-1.574 3.157-1.574 2.487 0 4.4 1.542 4.4 4.156 0 2.613-1.913 4.156-4.4 4.156zM75.623 14.58c1.148 0 1.722.189 1.722.189V18.2s-3.125-1.04-5.07 1.164v10.139h-3.763V14.957h3.157c.32 0 .542.284.542.536v.63c.734-.82 2.264-1.543 3.412-1.543zM36.72 28.15c-.191-.473-.382-.976-.574-1.386-.319-.692-.637-1.354-.892-1.952l-.032-.031A353.13 353.13 0 0026.58 7.37l-.127-.22a24.547 24.547 0 01-.925-1.827c-.383-.693-.766-1.417-1.403-2.11C22.88 1.672 21.095.822 19.182.822c-1.945 0-3.699.85-5.006 2.298-.574.693-1.02 1.417-1.403 2.11-.32.63-.638 1.228-.925 1.826l-.128.22c-2.997 5.793-5.93 11.65-8.641 17.411l-.032.063c-.287.63-.574 1.26-.893 1.952-.191.41-.383.882-.574 1.386-.51 1.417-.67 2.77-.478 4.156.414 2.896 2.391 5.32 5.07 6.391a8.41 8.41 0 003.157.63c.319 0 .701-.032 1.02-.063a10.03 10.03 0 003.89-1.322c1.595-.882 3.125-2.173 4.847-3.999 1.722 1.858 3.285 3.117 4.847 3.999 1.276.724 2.615 1.165 3.89 1.322.32.031.702.063 1.021.063 1.084 0 2.2-.189 3.157-.63 2.742-1.07 4.656-3.558 5.07-6.391.319-1.323.16-2.677-.35-4.093zm-17.602 1.983c-2.104-2.613-3.475-5.1-3.954-7.178-.191-.882-.223-1.669-.127-2.362.063-.63.318-1.165.637-1.605.734-1.04 1.977-1.7 3.444-1.7 1.467 0 2.743.63 3.444 1.7.319.472.542 1.007.638 1.605.128.693.064 1.512-.128 2.362-.478 2.078-1.85 4.534-3.954 7.178zM34.68 31.96a5.701 5.701 0 01-3.539 4.503 5.916 5.916 0 01-2.966.378 7.553 7.553 0 01-2.965-1.008c-1.403-.756-2.806-1.952-4.464-3.747 2.582-3.117 4.145-5.982 4.719-8.532a8.96 8.96 0 00.191-3.274c-.16-.977-.51-1.858-1.052-2.614-1.212-1.731-3.253-2.739-5.517-2.739-2.264 0-4.304 1.04-5.516 2.74-.542.755-.893 1.668-1.053 2.613a7.732 7.732 0 00.192 3.274c.574 2.55 2.2 5.447 4.72 8.564-1.595 1.763-3.03 2.96-4.465 3.747-1.02.566-1.977.881-2.966 1.007a6.183 6.183 0 01-2.965-.378c-1.913-.755-3.285-2.519-3.54-4.502-.127-.976-.032-1.92.351-2.991.128-.378.319-.756.51-1.228.287-.63.574-1.26.893-1.92l.032-.064a415.407 415.407 0 018.578-17.316l.127-.22c.32-.567.638-1.197.925-1.764.319-.63.67-1.196 1.084-1.7.83-.913 1.914-1.417 3.125-1.417 1.212 0 2.296.504 3.125 1.417a9.14 9.14 0 011.085 1.7c.318.567.637 1.197.924 1.763l.128.22a484.467 484.467 0 018.546 17.349v.031c.319.63.574 1.323.892 1.92.192.473.383.851.51 1.229.383.976.511 1.952.351 2.96z" fill="#244D4D"/></g><defs><clipPath id="clip0_2508_1308"><path fill="#fff" transform="translate(.977 .486)" d="M0 0h125v39H0z"/></clipPath></defs></svg>