<svg width="16" height="17" fill="none" xmlns="http://www.w3.org/2000/svg"><g clip-path="url(#clip0_2526_1459)"><path d="M12.445 8.121l-7.12-7.12a.869.869 0 00-.619-.255.869.869 0 00-.619.255l-.524.524a.876.876 0 000 1.238l5.979 5.98-5.986 5.985a.87.87 0 00-.255.619c0 .234.09.454.255.619l.525.524a.87.87 0 00.619.256.87.87 0 00.619-.256l7.126-7.127a.87.87 0 00.256-.62.87.87 0 00-.256-.622z" fill="#666"/></g><defs><clipPath id="clip0_2526_1459"><path fill="#fff" transform="translate(0 .746)" d="M0 0h16v16H0z"/></clipPath></defs></svg>