<svg width="25" height="25" fill="none" xmlns="http://www.w3.org/2000/svg"><g clip-path="url(#clip0_2537_240)" fill="#666"><path d="M2.459 13.514h20.016a1.494 1.494 0 000-2.988H2.46a1.494 1.494 0 100 2.988zm11.501-6.21a.792.792 0 00-.79.791V9.12h6.119V8.095a.791.791 0 00-.79-.79H13.96z"/><path d="M4.237 8.095a2.2 2.2 0 012.197-2.197h4.538c.576 0 1.101.224 1.494.588a2.188 2.188 0 011.494-.588h4.537a2.2 2.2 0 012.197 2.197V9.12h2.282V4.277c0-.825-.668-1.494-1.493-1.494H3.449c-.825 0-1.494.669-1.494 1.494V9.12h2.282V8.095z"/><path d="M6.435 7.304a.792.792 0 00-.79.791V9.12h6.119V8.095a.791.791 0 00-.791-.79H6.435zM.467 14.92v6.47h1.406v-2.564h21.188v2.564h1.406v-6.47h-24z"/></g><defs><clipPath id="clip0_2537_240"><path fill="#fff" transform="translate(.467 .086)" d="M0 0h24v24H0z"/></clipPath></defs></svg>