<svg width="25" height="25" fill="none" xmlns="http://www.w3.org/2000/svg"><g clip-path="url(#clip0_2537_219)" fill="#666"><path d="M20.087 10.31a.508.508 0 00.509-.508V8.17a.509.509 0 00-.509-.508l-.723.004-2.376 2.644h3.1zm-15.244 0h3.123L5.55 7.662h-.707a.509.509 0 00-.509.508v1.632c0 .28.228.508.509.508zm7.914 2.623l4.714-5.271H7.46l4.79 5.273a.34.34 0 00.506-.002zm1.328 7.418h-.876v-5.919c-.21.122-.45.188-.697.189h-.006c-.25 0-.491-.066-.703-.189v5.919h-.955a.703.703 0 100 1.406h3.237a.703.703 0 100-1.406z"/><path d="M6.396 12.267H1.873V3.932a.703.703 0 00-1.406 0V21.11a.703.703 0 101.406 0v-5.252h5.113v5.252a.703.703 0 101.406 0v-6.848c0-1.1-.895-1.995-1.996-1.995zm17.368-9.039a.703.703 0 00-.703.704v8.335h-4.419c-1.1 0-1.995.895-1.995 1.995v6.848a.703.703 0 101.406 0v-5.253h5.008v5.253a.703.703 0 101.406 0V3.932a.703.703 0 00-.703-.704z"/></g><defs><clipPath id="clip0_2537_219"><path fill="#fff" transform="translate(.467 .521)" d="M0 0h24v24H0z"/></clipPath></defs></svg>