<svg width="25" height="25" fill="none" xmlns="http://www.w3.org/2000/svg"><g clip-path="url(#clip0_2537_252)" fill="#666"><path d="M24.092 8.051H.842a.375.375 0 01-.375-.375v-1.5c0-.208.167-.375.375-.375h23.25c.207 0 .375.167.375.375v1.5a.375.375 0 01-.375.375zm-22.875-.75h22.5v-.75h-22.5v.75z"/><path d="M1.217 19.683a.375.375 0 01-.375-.375V7.743a.375.375 0 11.75 0v11.565a.375.375 0 01-.375.375zm1.125 0a.375.375 0 01-.375-.375V7.743a.375.375 0 11.75 0v11.565a.375.375 0 01-.375.375zm20.25 0a.374.374 0 01-.375-.375V7.743a.375.375 0 11.75 0v11.565a.374.374 0 01-.375.375zm1.125 0a.374.374 0 01-.375-.375V7.743a.375.375 0 11.75 0v11.565a.374.374 0 01-.375.375z"/><path d="M2.342 19.683H1.217a.375.375 0 110-.75h1.125a.375.375 0 110 .75zm21.375 0h-1.125a.374.374 0 110-.75h1.125a.375.375 0 110 .75zm-1.125-6.377H2.342a.375.375 0 110-.75h20.25a.375.375 0 110 .75zm0 1.126H2.342a.375.375 0 110-.75h20.25a.374.374 0 110 .75z"/><path d="M3.842 13.307a.375.375 0 01-.375-.375c0-1.034.84-1.875 1.874-1.875a.375.375 0 110 .75c-.62 0-1.124.504-1.124 1.125a.375.375 0 01-.375.375z"/><path d="M7.591 13.307a.375.375 0 01-.375-.375c0-.62-.504-1.125-1.124-1.125a.375.375 0 110-.75c1.034 0 1.874.84 1.874 1.875a.375.375 0 01-.375.375zm-3.374-.992a.375.375 0 01-.375-.375V9.932a.375.375 0 11.75 0v2.008a.375.375 0 01-.375.375z"/><path d="M7.215 12.315a.375.375 0 01-.375-.375V9.932a.375.375 0 11.75 0v2.008a.375.375 0 01-.375.375zm-2.248-1.633a.375.375 0 01-.375-.375V9.182a.375.375 0 11.75 0v1.125a.375.375 0 01-.375.375z"/><path d="M6.467 9.557h-1.5a.375.375 0 110-.75h1.5a.375.375 0 110 .75z"/><path d="M6.467 10.682a.375.375 0 01-.375-.375V9.182a.375.375 0 11.75 0v1.125a.375.375 0 01-.375.375zm-1.499-.375h-.751a.375.375 0 110-.75h.75a.375.375 0 110 .75z"/><path d="M7.215 10.307h-.748a.375.375 0 110-.75h.748a.375.375 0 110 .75zm-1.124 1.5H5.34a.375.375 0 110-.75h.751a.375.375 0 110 .75zm2.626 1.5a.375.375 0 01-.375-.375c0-1.034.84-1.875 1.874-1.875a.375.375 0 110 .75c-.62 0-1.124.504-1.124 1.125a.375.375 0 01-.375.375z"/><path d="M12.466 13.307a.375.375 0 01-.375-.375c0-.62-.504-1.125-1.124-1.125a.375.375 0 110-.75c1.034 0 1.874.84 1.874 1.875a.375.375 0 01-.375.375zm-3.374-.992a.375.375 0 01-.375-.375V9.932a.375.375 0 11.75 0v2.008a.375.375 0 01-.375.375z"/><path d="M12.09 12.315a.375.375 0 01-.375-.375V9.932a.375.375 0 11.75 0v2.008a.375.375 0 01-.375.375zm-2.248-1.633a.375.375 0 01-.375-.375V9.182a.375.375 0 11.75 0v1.125a.375.375 0 01-.375.375z"/><path d="M11.342 9.557h-1.5a.375.375 0 110-.75h1.5a.375.375 0 110 .75z"/><path d="M11.342 10.682a.375.375 0 01-.375-.375V9.182a.375.375 0 11.75 0v1.125a.375.375 0 01-.375.375zm-1.499-.375h-.751a.375.375 0 110-.75h.75a.375.375 0 110 .75z"/><path d="M12.09 10.307h-.748a.375.375 0 110-.75h.748a.375.375 0 110 .75zm-1.124 1.5h-.751a.375.375 0 110-.75h.751a.374.374 0 110 .75zm1.509 7.125a.375.375 0 01-.375-.375c0-.62.505-1.125 1.125-1.125a.374.374 0 110 .75.376.376 0 00-.375.375.375.375 0 01-.375.375zm3.752 0a.375.375 0 01-.375-.375.375.375 0 00-.375-.375.375.375 0 110-.75c.62 0 1.125.505 1.125 1.125a.375.375 0 01-.375.375zm-.001.751h-3.751a.375.375 0 110-.75h3.751a.375.375 0 110 .75z"/><path d="M15.506 18.182h-2.31a.375.375 0 110-.75h2.31a.374.374 0 110 .75z"/><path d="M13.225 18.182a.375.375 0 01-.375-.375v-2.25a.375.375 0 11.75 0v2.25a.375.375 0 01-.375.375zm2.252 0a.375.375 0 01-.375-.375v-2.25a.375.375 0 11.75 0v2.25a.375.375 0 01-.375.375zm-3.002 1.501a.375.375 0 01-.375-.375v-.75a.375.375 0 11.75 0v.75a.375.375 0 01-.375.375zm3.752 0a.375.375 0 01-.375-.375v-.75a.375.375 0 11.75 0v.75a.375.375 0 01-.375.375z"/><path d="M15.476 15.932h-2.251a.375.375 0 110-.75h2.251a.375.375 0 110 .75zm.374 1.125h-3a.375.375 0 110-.75h3a.375.375 0 110 .75zm1.5 1.875a.375.375 0 01-.375-.375c0-.62.505-1.125 1.125-1.125a.374.374 0 110 .75.376.376 0 00-.375.375.375.375 0 01-.375.375zm3.752 0a.375.375 0 01-.375-.375.375.375 0 00-.375-.375.375.375 0 110-.75c.62 0 1.125.505 1.125 1.125a.375.375 0 01-.375.375zm-.002.751h-3.75a.375.375 0 110-.75h3.75a.375.375 0 110 .75z"/><path d="M20.381 18.182h-2.31a.375.375 0 110-.75h2.31a.374.374 0 110 .75z"/><path d="M18.1 18.182a.375.375 0 01-.375-.375v-2.25a.375.375 0 11.75 0v2.25a.375.375 0 01-.375.375zm2.252 0a.375.375 0 01-.375-.375v-2.25a.375.375 0 11.75 0v2.25a.375.375 0 01-.375.375zm-3.002 1.501a.375.375 0 01-.375-.375v-.75a.375.375 0 11.75 0v.75a.375.375 0 01-.375.375zm3.752 0a.375.375 0 01-.375-.375v-.75a.375.375 0 11.75 0v.75a.375.375 0 01-.375.375z"/><path d="M20.351 15.932H18.1a.375.375 0 110-.75h2.251a.375.375 0 110 .75zm.375 1.125h-3.001a.375.375 0 110-.75h3a.375.375 0 110 .75z"/></g><defs><clipPath id="clip0_2537_252"><path fill="#fff" transform="translate(.467 .738)" d="M0 0h24v24H0z"/></clipPath></defs></svg>