<svg width="20" height="21" fill="none" xmlns="http://www.w3.org/2000/svg"><g clip-path="url(#clip0_57_390)" fill="#fff"><path d="M11.913 10.172a1.914 1.914 0 11-3.828 0 1.914 1.914 0 013.828 0z"/><path d="M14.475 6.785a1.778 1.778 0 00-.43-.66 1.777 1.777 0 00-.66-.43c-.202-.078-.506-.172-1.066-.197-.606-.028-.787-.034-2.32-.034-1.534 0-1.715.006-2.32.034-.56.025-.865.119-1.067.198-.25.092-.475.238-.66.43a1.78 1.78 0 00-.43.66c-.078.202-.172.506-.197 1.066-.028.605-.034.787-.034 2.32s.006 1.715.034 2.32c.025.56.119.864.197 1.066.092.25.239.476.43.66.185.191.41.338.66.43.202.08.506.173 1.066.198.606.028.787.034 2.32.034 1.534 0 1.716-.006 2.32-.034.56-.025.865-.119 1.067-.198a1.9 1.9 0 001.09-1.09c.079-.202.172-.506.198-1.066.027-.605.033-.787.033-2.32s-.006-1.715-.033-2.32c-.026-.56-.12-.864-.198-1.067zM9.999 13.12a2.949 2.949 0 110-5.897 2.949 2.949 0 010 5.897zm3.065-5.324a.69.69 0 110-1.378.69.69 0 010 1.378z"/><path d="M9.999.172c-5.522 0-10 4.478-10 10s4.478 10 10 10 10-4.478 10-10-4.478-10-10-10zm5.708 12.367c-.028.611-.125 1.029-.267 1.394a2.936 2.936 0 01-1.68 1.68c-.365.142-.782.239-1.393.266-.613.028-.808.035-2.368.035-1.56 0-1.755-.007-2.367-.035-.611-.027-1.029-.124-1.394-.266a2.812 2.812 0 01-1.017-.663 2.815 2.815 0 01-.662-1.017c-.142-.365-.24-.783-.267-1.394-.029-.612-.035-.808-.035-2.367 0-1.56.006-1.755.034-2.368.028-.61.125-1.028.267-1.393.144-.384.37-.73.663-1.017a2.813 2.813 0 011.017-.663c.365-.142.782-.239 1.394-.267.612-.028.808-.034 2.367-.034 1.56 0 1.755.006 2.367.034.612.028 1.029.125 1.394.267.383.144.73.37 1.018.663.291.286.518.633.662 1.017.142.365.239.782.267 1.393.028.613.034.808.034 2.368 0 1.56-.006 1.755-.034 2.367z"/></g><defs><clipPath id="clip0_57_390"><path fill="#fff" transform="translate(-.001 .172)" d="M0 0h20v20H0z"/></clipPath></defs></svg>