<svg width="27" height="27" fill="none" xmlns="http://www.w3.org/2000/svg"><circle cx="13.941" cy="13.618" r="13" fill="#ECF4FF"/><g clip-path="url(#clip0_2526_1425)"><path d="M16.871 15.103c-.579 0-1.093.281-1.413.714l-2.76-1.41a1.753 1.753 0 00-.057-1.155l2.892-1.737c.323.378.803.619 1.338.619a1.76 1.76 0 001.758-1.758 1.76 1.76 0 00-1.758-1.758 1.76 1.76 0 00-1.639 2.394l-2.899 1.741a1.754 1.754 0 00-1.321-.6 1.76 1.76 0 00-1.758 1.758 1.757 1.757 0 003.187 1.022l2.751 1.406a1.76 1.76 0 001.679 2.279 1.76 1.76 0 001.758-1.758 1.76 1.76 0 00-1.758-1.757zm0-5.899c.646 0 1.172.526 1.172 1.172 0 .646-.526 1.172-1.172 1.172a1.173 1.173 0 01-1.172-1.172c0-.646.526-1.172 1.172-1.172zm-5.86 5.88A1.173 1.173 0 019.84 13.91c0-.646.526-1.172 1.172-1.172.646 0 1.172.526 1.172 1.172 0 .646-.526 1.172-1.172 1.172zm5.86 2.948A1.173 1.173 0 0115.7 16.86a1.173 1.173 0 012.344 0c0 .647-.526 1.172-1.172 1.172z" fill="#000"/></g><defs><clipPath id="clip0_2526_1425"><path fill="#fff" transform="translate(8.941 8.618)" d="M0 0h10v10H0z"/></clipPath></defs></svg>