<svg width="145" height="23" fill="none" xmlns="http://www.w3.org/2000/svg"><path d="M.992 1.2h7.632c1.824 0 3.432.352 4.824 1.056 1.408.688 2.496 1.664 3.264 2.928.784 1.264 1.176 2.736 1.176 4.416 0 1.68-.392 3.152-1.176 4.416-.768 1.264-1.856 2.248-3.264 2.952-1.392.688-3 1.032-4.824 1.032H.992V1.2zm7.44 13.608c1.68 0 3.016-.464 4.008-1.392 1.008-.944 1.512-2.216 1.512-3.816 0-1.6-.504-2.864-1.512-3.792-.992-.944-2.328-1.416-4.008-1.416H4.88v10.416h3.552zm25.132-9.72V18h-3.552v-1.536a5.096 5.096 0 01-1.776 1.296 5.722 5.722 0 01-2.232.432c-1.696 0-3.04-.488-4.032-1.464s-1.488-2.424-1.488-4.344V5.088h3.744v6.744c0 2.08.872 3.12 2.616 3.12.896 0 1.616-.288 2.16-.864.544-.592.816-1.464.816-2.616V5.088h3.744zM50.184.192V18H46.61v-1.488c-.928 1.12-2.272 1.68-4.032 1.68-1.216 0-2.32-.272-3.312-.816a5.865 5.865 0 01-2.304-2.328c-.56-1.008-.84-2.176-.84-3.504 0-1.328.28-2.496.84-3.504a5.865 5.865 0 012.304-2.328c.992-.544 2.096-.816 3.312-.816 1.648 0 2.936.52 3.864 1.56V.192h3.744zm-6.96 14.928c.945 0 1.729-.32 2.353-.96.624-.656.936-1.528.936-2.616s-.312-1.952-.936-2.592c-.624-.656-1.408-.984-2.352-.984-.96 0-1.752.328-2.376.984-.624.64-.936 1.504-.936 2.592s.312 1.96.936 2.616c.624.64 1.416.96 2.376.96zm23.074-3.528c0 .048-.024.384-.072 1.008h-9.768c.176.8.592 1.432 1.248 1.896.656.464 1.472.696 2.448.696.672 0 1.264-.096 1.776-.288a4.46 4.46 0 001.464-.96l1.992 2.16c-1.216 1.392-2.992 2.088-5.328 2.088-1.456 0-2.744-.28-3.864-.84-1.12-.576-1.984-1.368-2.592-2.376-.608-1.008-.912-2.152-.912-3.432 0-1.264.296-2.4.888-3.408A6.3 6.3 0 0156.05 5.76c1.056-.576 2.232-.864 3.528-.864 1.264 0 2.408.272 3.432.816a5.857 5.857 0 012.4 2.352c.592 1.008.888 2.184.888 3.528zm-6.696-3.864c-.848 0-1.56.24-2.136.72-.576.48-.928 1.136-1.056 1.968h6.36c-.128-.816-.48-1.464-1.056-1.944-.576-.496-1.28-.744-2.112-.744zm14.973 10.56c-1.329 0-2.617-.176-3.865-.528-1.231-.368-2.223-.84-2.975-1.416l1.32-2.928c.72.528 1.575.952 2.567 1.272.993.32 1.984.48 2.977.48 1.103 0 1.92-.16 2.447-.48.528-.336.792-.776.792-1.32 0-.4-.16-.728-.48-.984-.303-.272-.704-.488-1.2-.648-.48-.16-1.136-.336-1.968-.528-1.28-.304-2.328-.608-3.144-.912a5.199 5.199 0 01-2.112-1.464c-.575-.672-.864-1.568-.864-2.688 0-.976.265-1.856.793-2.64.528-.8 1.32-1.432 2.376-1.896 1.072-.464 2.376-.696 3.911-.696 1.072 0 2.12.128 3.144.384 1.025.256 1.92.624 2.689 1.104l-1.2 2.952c-1.552-.88-3.105-1.32-4.657-1.32-1.088 0-1.895.176-2.424.528-.511.352-.767.816-.767 1.392s.296 1.008.888 1.296c.608.272 1.528.544 2.76.816 1.28.304 2.328.608 3.144.912a5.113 5.113 0 012.087 1.44c.593.656.889 1.544.889 2.664 0 .96-.273 1.84-.817 2.64-.527.784-1.328 1.408-2.4 1.872-1.072.464-2.376.696-3.912.696zM91.942 4.896c1.6 0 2.888.48 3.864 1.44.992.96 1.488 2.384 1.488 4.272V18H93.55v-6.816c0-1.024-.224-1.784-.672-2.28-.448-.512-1.096-.768-1.944-.768-.944 0-1.696.296-2.256.888-.56.576-.84 1.44-.84 2.592V18h-3.744V.192h3.744v6.24a4.85 4.85 0 011.8-1.128 6.34 6.34 0 012.304-.408zm13.954 0c2 0 3.536.48 4.608 1.44 1.072.944 1.608 2.376 1.608 4.296V18h-3.504v-1.608c-.704 1.2-2.016 1.8-3.936 1.8-.992 0-1.856-.168-2.592-.504-.72-.336-1.272-.8-1.656-1.392-.384-.592-.576-1.264-.576-2.016 0-1.2.448-2.144 1.344-2.832.912-.688 2.312-1.032 4.2-1.032h2.976c0-.816-.248-1.44-.744-1.872-.496-.448-1.24-.672-2.232-.672-.688 0-1.368.112-2.04.336-.656.208-1.216.496-1.68.864l-1.344-2.616c.704-.496 1.544-.88 2.52-1.152a11.474 11.474 0 013.048-.408zm-.288 10.776c.64 0 1.208-.144 1.704-.432a2.486 2.486 0 001.056-1.32V12.6H105.8c-1.536 0-2.304.504-2.304 1.512 0 .48.184.864.552 1.152.384.272.904.408 1.56.408zm17.524-10.776c1.2 0 2.288.28 3.264.84a5.821 5.821 0 012.328 2.328c.56.992.84 2.152.84 3.48 0 1.328-.28 2.496-.84 3.504a6.028 6.028 0 01-2.328 2.328c-.976.544-2.064.816-3.264.816-1.648 0-2.944-.52-3.888-1.56v6.024H115.5V5.088h3.576v1.488c.928-1.12 2.28-1.68 4.056-1.68zm-.648 10.224c.96 0 1.744-.32 2.352-.96.624-.656.936-1.528.936-2.616s-.312-1.952-.936-2.592c-.608-.656-1.392-.984-2.352-.984s-1.752.328-2.376.984c-.608.64-.912 1.504-.912 2.592s.304 1.96.912 2.616c.624.64 1.416.96 2.376.96zm22.235-3.528c0 .048-.024.384-.072 1.008h-9.768c.176.8.592 1.432 1.248 1.896.656.464 1.472.696 2.448.696.672 0 1.264-.096 1.776-.288a4.46 4.46 0 001.464-.96l1.992 2.16c-1.216 1.392-2.992 2.088-5.328 2.088-1.456 0-2.744-.28-3.864-.84-1.12-.576-1.984-1.368-2.592-2.376-.608-1.008-.912-2.152-.912-3.432 0-1.264.296-2.4.888-3.408a6.3 6.3 0 012.472-2.376c1.056-.576 2.232-.864 3.528-.864 1.264 0 2.408.272 3.432.816a5.857 5.857 0 012.4 2.352c.592 1.008.888 2.184.888 3.528zm-6.696-3.864c-.848 0-1.56.24-2.136.72-.576.48-.928 1.136-1.056 1.968h6.36c-.128-.816-.48-1.464-1.056-1.944-.576-.496-1.28-.744-2.112-.744z" fill="#244D4D"/></svg>