<svg width="20" height="21" fill="none" xmlns="http://www.w3.org/2000/svg"><g clip-path="url(#clip0_2581_789)"><path d="M10 20.925c5.523 0 10-4.477 10-10s-4.477-10-10-10-10 4.477-10 10 4.477 10 10 10z" fill="#fff"/><path d="M16.123 8.112c-.428.19-.89.318-1.373.376a2.397 2.397 0 001.052-1.322 4.786 4.786 0 01-1.518.58 2.39 2.39 0 00-4.073 2.18 6.785 6.785 0 01-4.927-2.498 2.39 2.39 0 00.74 3.191 2.374 2.374 0 01-1.083-.299v.03a2.39 2.39 0 001.917 2.344 2.378 2.378 0 01-1.08.041 2.393 2.393 0 002.233 1.66 4.796 4.796 0 01-3.538.99 6.76 6.76 0 003.663 1.074c4.397 0 6.801-3.642 6.801-6.8 0-.105-.002-.208-.007-.31a4.847 4.847 0 001.193-1.237z" fill="#305F64"/></g><defs><clipPath id="clip0_2581_789"><path fill="#fff" transform="translate(0 .925)" d="M0 0h20v20H0z"/></clipPath></defs></svg>