<svg width="20" height="21" fill="none" xmlns="http://www.w3.org/2000/svg"><g clip-path="url(#clip0_2581_799)"><path d="M10 20.925c5.523 0 10-4.477 10-10s-4.477-10-10-10-10 4.477-10 10 4.477 10 10 10z" fill="#fff"/><path d="M17.069 3.853c3.905 3.906 3.905 10.238 0 14.143-3.905 3.906-10.238 3.906-14.143 0L17.069 3.853z" fill="#fff"/><path d="M19.798 12.928l-4.95-4.95-5.837.665-3.53 5.467 6.597 6.597a10.012 10.012 0 007.72-7.78z" fill="#fff"/><path d="M15.233 8.995c0-.838-.68-1.517-1.517-1.517H6.599c-.838 0-1.517.68-1.517 1.517v4.07c0 .839.68 1.518 1.517 1.518h7.117c.838 0 1.517-.68 1.517-1.518v-4.07zm-6.091 3.752V8.925l2.899 1.911-2.899 1.911z" fill="#305F64"/></g><defs><clipPath id="clip0_2581_799"><path fill="#fff" transform="translate(0 .925)" d="M0 0h20v20H0z"/></clipPath></defs></svg>